name rise31.4854peak64.571fall78.6902.mot
datacolumns 19
datarows 12
range 15.87662000000000 15.89493900000000
endheader
time	ground_force1_vx	ground_force1_vy	ground_force1_vz	ground_force1_px	ground_force1_py	ground_force1_pz	ground_force2_vx	ground_force2_vy	ground_force2_vz	ground_force2_px	ground_force2_py	ground_force2_pz	ground_torque1_x	ground_torque1_y	ground_torque1_z	ground_torque2_x	ground_torque2_y	ground_torque2_z	
15.87662000000000	-0.36501100000000	703.21855400000004	41.74189400000000	0.19202700000000	0.00000000000000	0.09599100000000	0.00000000000000	0.00000000000000	0.00000000000000	0.00000000000000	0.00000000000000	0.00000000000000	0.00000000000000	17.34767600000000	0.00000000000000	0.00000000000000	0.00000000000000	0.00000000000000	
15.87827500000000	-0.99125000000000	704.64543900000001	41.76579300000000	0.19086900000000	0.00000000000000	0.09605400000000	0.00000000000000	0.00000000000000	0.00000000000000	0.00000000000000	0.00000000000000	0.00000000000000	0.00000000000000	17.43172600000000	0.00000000000000	0.00000000000000	0.00000000000000	0.00000000000000	
15.87994200000000	-1.63384100000000	706.08112000000006	41.79228000000000	0.18969600000000	0.00000000000000	0.09611800000000	0.00000000000000	0.00000000000000	0.00000000000000	0.00000000000000	0.00000000000000	0.00000000000000	0.00000000000000	17.51965100000000	0.00000000000000	0.00000000000000	0.00000000000000	0.00000000000000	
15.88161800000000	-2.29260500000000	707.52564600000005	41.82145800000000	0.18850800000000	0.00000000000000	0.09618400000000	0.00000000000000	0.00000000000000	0.00000000000000	0.00000000000000	0.00000000000000	0.00000000000000	0.00000000000000	17.61141000000000	0.00000000000000	0.00000000000000	0.00000000000000	0.00000000000000	
15.88327200000000	-2.96731400000000	708.97920599999998	41.85344500000000	0.18730700000000	0.00000000000000	0.09625100000000	0.00000000000000	0.00000000000000	0.00000000000000	0.00000000000000	0.00000000000000	0.00000000000000	0.00000000000000	17.70695500000000	0.00000000000000	0.00000000000000	0.00000000000000	0.00000000000000	
15.88494400000000	-3.65768600000000	710.44212000000005	41.88837800000000	0.18609400000000	0.00000000000000	0.09632000000000	0.00000000000000	0.00000000000000	0.00000000000000	0.00000000000000	0.00000000000000	0.00000000000000	0.00000000000000	17.80623400000000	0.00000000000000	0.00000000000000	0.00000000000000	0.00000000000000	
15.88663100000000	-4.36339400000000	711.91483000000005	41.92640700000000	0.18487000000000	0.00000000000000	0.09639000000000	0.00000000000000	0.00000000000000	0.00000000000000	0.00000000000000	0.00000000000000	0.00000000000000	0.00000000000000	17.90919000000000	0.00000000000000	0.00000000000000	0.00000000000000	0.00000000000000	
15.88827600000000	-5.08406100000000	713.39789499999995	41.96770000000000	0.18363600000000	0.00000000000000	0.09646100000000	0.00000000000000	0.00000000000000	0.00000000000000	0.00000000000000	0.00000000000000	0.00000000000000	0.00000000000000	18.01575700000000	0.00000000000000	0.00000000000000	0.00000000000000	0.00000000000000	
15.88994200000000	-5.81926600000000	714.89198099999999	42.01243900000000	0.18239400000000	0.00000000000000	0.09653400000000	0.00000000000000	0.00000000000000	0.00000000000000	0.00000000000000	0.00000000000000	0.00000000000000	0.00000000000000	18.12586800000000	0.00000000000000	0.00000000000000	0.00000000000000	0.00000000000000	
15.89160700000000	-6.56854300000000	716.39784799999995	42.06082300000000	0.18114500000000	0.00000000000000	0.09660700000000	0.00000000000000	0.00000000000000	0.00000000000000	0.00000000000000	0.00000000000000	0.00000000000000	0.00000000000000	18.23944500000000	0.00000000000000	0.00000000000000	0.00000000000000	0.00000000000000	
15.89327100000000	-7.33138200000000	717.91634699999997	42.11306100000000	0.17989100000000	0.00000000000000	0.09668100000000	0.00000000000000	0.00000000000000	0.00000000000000	0.00000000000000	0.00000000000000	0.00000000000000	0.00000000000000	18.35640600000000	0.00000000000000	0.00000000000000	0.00000000000000	0.00000000000000	
15.89493900000000	-8.10723400000000	719.44839999999999	42.16937900000000	0.17863200000000	0.00000000000000	0.09675600000000	0.00000000000000	0.00000000000000	0.00000000000000	0.00000000000000	0.00000000000000	0.00000000000000	0.00000000000000	18.47666200000000	0.00000000000000	0.00000000000000	0.00000000000000	0.00000000000000	
